#!OML:ASF H:\MichaelJackson\Top Level 1\Subject 1\Session 1\male.ASF
:FULLY-SPECIFIED
:DEGREES
883
root 3.85195 16.5305 30.5312 -10.8246 23.6768 359.35
lowerback 15.0059 -4.01209 -6.64789
upperback 4.97444 -6.28636 -2.38034
thorax -2.64296 -3.11384 2.26165
lowerneck -7.71871 -3.24517 1.71638
upperneck 4.65939 -4.84264 4.94114
head 2.93726 -2.18998 1.06474
rclavicle -3.12092e-014 -4.77083e-015
rhumerus -49.2556 -29.6742 -46.9493
rradius 72.2992
rwrist -23.3678
rhand -47.7649 -54.4874
rfingers 7.12502
rthumb -20.4424 -803.431
lclavicle -3.12092e-014 -4.77083e-015
lhumerus -33.0312 -40.5423 88.3441
lradius 60.5977
lwrist 19.6497
lhand 25.8347 11.8689
lfingers 7.12502
lthumb 49.9264 33.1302
rfemur -80.7132 -24.4467 36.5168
rtibia 101.126
rfoot 19.264 26.205
rtoes -8.14353
lfemur -15.8095 19.9983 -19.0116
ltibia 40.4913
lfoot -12.9326 0.0690648
ltoes -1.37978
884
root 3.8296 16.5353 30.6037 -10.203 24.5704 358.814
lowerback 14.2528 -4.2355 -6.41
upperback 4.65262 -6.50167 -2.1555
thorax -2.56307 -3.22089 2.34828
lowerneck -7.79657 -3.43782 1.56688
upperneck 4.96761 -5.10826 4.99629
head 3.06928 -2.31337 1.09304
rclavicle 5.06901e-015 7.95139e-015
rhumerus -49.2415 -29.3917 -48.3906
rradius 74.6547
rwrist -23.614
rhand -49.3956 -61.0614
rfingers 7.12502
rthumb -22.0089 -809.829
lclavicle 5.06901e-015 7.95139e-015
lhumerus -33.6263 -41.4114 89.7739
lradius 60.2391
lwrist 18.2952
lhand 26.6673 11.932
lfingers 7.12502
lthumb 50.6874 32.7862
rfemur -79.069 -25.6761 35.2628
rtibia 104.194
rfoot 20.0602 25.3026
rtoes -5.37972
lfemur -16.776 21.5528 -18.595
ltibia 40.8491
lfoot -12.9905 1.16374
ltoes -1.27535
885
root 3.80407 16.5687 30.6695 -9.57769 25.3839 358.391
lowerback 13.5131 -4.41943 -6.2638
upperback 4.32647 -6.68327 -1.95983
thorax -2.48764 -3.31114 2.44704
lowerneck -7.84255 -3.64141 1.40903
upperneck 5.18316 -5.38128 5.04702
head 3.1648 -2.44375 1.12128
rclavicle -1.33186e-014 -2.22639e-014
rhumerus -49.1469 -28.7732 -50.1037
rradius 77.1232
rwrist -23.7741
rhand -50.1716 -66.2227
rfingers 7.12502
rthumb -22.7538 -985.099
lclavicle -1.33186e-014 -2.22639e-014
lhumerus -34.4615 -42.1759 91.2542
lradius 60.1121
lwrist 17.0098
lhand 27.2604 11.8633
lfingers 7.12502
lthumb 51.228 32.4166
rfemur -76.6751 -26.9284 33.7158
rtibia 106.616
rfoot 20.2929 24.0061
rtoes -3.70094
lfemur -17.6457 23.0577 -18.3135
ltibia 41.0923
lfoot -13.1407 1.7204
ltoes -1.11867
886
root 3.78356 16.568 30.7457 -8.94385 26.1271 358.099
lowerback 12.7927 -4.57017 -6.21839
upperback 4.00404 -6.8384 -1.80265
thorax -2.4107 -3.3882 2.55526
lowerneck -7.85499 -3.85578 1.24339
upperneck 5.30652 -5.66218 5.10187
head 3.22362 -2.58103 1.15233
rclavicle -1.14301e-014 -4.45278e-014
rhumerus -48.9892 -27.8296 -52.077
rradius 79.6903
rwrist -23.8718
rhand -50.2476 -69.1962
rfingers 7.12502
rthumb -22.8267 -982.135
lclavicle -1.14301e-014 -4.45278e-014
lhumerus -35.5137 -42.8422 92.7661
lradius 60.2023
lwrist 15.8725
lhand 27.6035 11.7236
lfingers 7.12502
lthumb 51.54 32.0985
rfemur -74.0896 -28.052 31.8739
rtibia 108.76
rfoot 20.1155 22.4589
rtoes -3.37465
lfemur -18.5274 24.4444 -18.1632
ltibia 41.385
lfoot -13.3918 1.8084
ltoes -0.975872
887
root 3.76414 16.5653 30.8227 -8.29838 26.8032 357.941
lowerback 12.0911 -4.69288 -6.26376
upperback 3.69107 -6.97007 -1.68782
thorax -2.32755 -3.45358 2.66437
lowerneck -7.83811 -4.08005 1.07039
upperneck 5.34982 -5.95091 5.16345
head 3.25071 -2.72465 1.18706
rclavicle -8.54774e-015 -6.36111e-015
rhumerus -48.7898 -26.583 -54.2838
rradius 82.3318
rwrist -23.8493
rhand -49.7127 -69.6554
rfingers 7.12502
rthumb -22.3133 -981.613
lclavicle -8.54774e-015 -6.36111e-015
lhumerus -36.7434 -43.4165 94.2939
lradius 60.4722
lwrist 14.9439
lhand 27.7191 11.5859
lfingers 7.12502
lthumb 51.6451 31.9
rfemur -71.0963 -29.0213 29.6851
rtibia 110.403
rfoot 19.7702 20.7809
rtoes -3.60708
lfemur -19.3584 25.6529 -18.1505
ltibia 41.6391
lfoot -13.6723 1.5439
ltoes -0.859129
